<svg version="1.1" xmlns="http://www.w3.org/2000/svg" viewBox="0 0 614 632" width="614" height="632">
  <!-- svg-source:excalidraw -->
  
  <defs>
    <style class="style-fonts">
      @font-face {
        font-family: "Virgil";
        src: url("https://excalidraw.com/Virgil.woff2");
      }
      @font-face {
        font-family: "Cascadia";
        src: url("https://excalidraw.com/Cascadia.woff2");
      }
      @font-face {
        font-family: "Assistant";
        src: url("https://excalidraw.com/Assistant-Regular.woff2");
      }
    </style>
    <clipPath id="k-Tv1mwhTYH-yA3cm00yf">
            <rect transform="translate(0 0) rotate(0 307 316)" width="614" height="632">
          </rect>
        </clipPath>
  </defs>
  <rect x="0" y="0" width="614" height="632" fill="#ffffff"></rect><g clip-path="url(#k-Tv1mwhTYH-yA3cm00yf)"><g stroke-linecap="round" transform="translate(164 57) rotate(0 118 207.5)"><path d="M32 0 C73.11 0.25, 113.33 0.69, 204 0 M32 0 C92.69 -1.74, 151.32 -1.72, 204 0 M204 0 C224.05 1.87, 236.76 10.4, 236 32 M204 0 C225.99 -0.36, 236.39 10.75, 236 32 M236 32 C233.95 121.86, 235.12 212.15, 236 383 M236 32 C237.57 157.51, 237.33 283.09, 236 383 M236 383 C235.69 405.51, 226.92 413.52, 204 415 M236 383 C238.05 404.49, 224.96 412.86, 204 415 M204 415 C144.71 415.6, 82.18 414.87, 32 415 M204 415 C162.27 414.19, 119.83 414.3, 32 415 M32 415 C9 415.88, 1.86 402.45, 0 383 M32 415 C12.24 415.38, 0.75 405.71, 0 383 M0 383 C1.14 251.19, -0.3 121.55, 0 32 M0 383 C0.84 279.08, 1 174.88, 0 32 M0 32 C-0.56 11.14, 11.01 1.28, 32 0 M0 32 C1.29 8.59, 9.7 0.33, 32 0" stroke="#1e1e1e" stroke-width="2" fill="none"></path></g></g><g clip-path="url(#k-Tv1mwhTYH-yA3cm00yf)"><g transform="translate(241 230) rotate(0 45.65833282470703 25)"><text x="0" y="0" font-family="Virgil, Segoe UI Emoji" font-size="20px" fill="#1e1e1e" text-anchor="start" style="white-space: pre;" direction="ltr" dominant-baseline="text-before-edge">1 to 8</text><text x="0" y="25" font-family="Virgil, Segoe UI Emoji" font-size="20px" fill="#1e1e1e" text-anchor="start" style="white-space: pre;" direction="ltr" dominant-baseline="text-before-edge">De-MUXkl</text></g></g><g clip-path="url(#k-Tv1mwhTYH-yA3cm00yf)"><g stroke-linecap="round"><g transform="translate(397 97) rotate(0 90 0)"><path d="M-0.32 -0.95 C29.7 -1.13, 149.72 -0.43, 179.78 -0.45 M1.72 1.17 C31.59 1.1, 149.11 1.09, 178.71 0.85" stroke="#1e1e1e" stroke-width="2" fill="none"></path></g></g><mask></mask></g><g clip-path="url(#k-Tv1mwhTYH-yA3cm00yf)"><g stroke-linecap="round"><g transform="translate(397 146) rotate(0 90 0)"><path d="M0.78 0.01 C30.87 -0.28, 150.59 -1.02, 180.61 -1.18 M-0.27 -1.03 C29.71 -1.27, 149.83 -0.41, 179.98 -0.26" stroke="#1e1e1e" stroke-width="2" fill="none"></path></g></g><mask></mask></g><g clip-path="url(#k-Tv1mwhTYH-yA3cm00yf)"><g stroke-linecap="round"><g transform="translate(397 192) rotate(0 90 0)"><path d="M0.53 0.22 C30.35 0.04, 149.19 -0.52, 179.06 -0.38 M-0.66 -0.71 C29.52 -0.79, 151.36 0.96, 181.28 0.95" stroke="#1e1e1e" stroke-width="2" fill="none"></path></g></g><mask></mask></g><g clip-path="url(#k-Tv1mwhTYH-yA3cm00yf)"><g stroke-linecap="round"><g transform="translate(398 238) rotate(0 90 0)"><path d="M-0.59 -0.35 C29.69 -0.07, 150.84 0.46, 180.9 0.55 M1.29 -1.58 C31.57 -1.56, 150.82 -1.82, 180.42 -1.29" stroke="#1e1e1e" stroke-width="2" fill="none"></path></g></g><mask></mask></g><g clip-path="url(#k-Tv1mwhTYH-yA3cm00yf)"><g stroke-linecap="round"><g transform="translate(399 284) rotate(0 90 0)"><path d="M0.66 0.04 C30.53 0.21, 150.07 0.15, 180.01 0.01 M-0.45 -0.98 C29.19 -0.51, 149.05 1.37, 179.07 1.55" stroke="#1e1e1e" stroke-width="2" fill="none"></path></g></g><mask></mask></g><g clip-path="url(#k-Tv1mwhTYH-yA3cm00yf)"><g stroke-linecap="round"><g transform="translate(401 332) rotate(0 90 0)"><path d="M1.18 -0.61 C31.15 -0.73, 149.53 -0.24, 179.18 -0.04 M0.34 1.68 C30.75 1.71, 151.27 1.99, 181.46 1.48" stroke="#1e1e1e" stroke-width="2" fill="none"></path></g></g><mask></mask></g><g clip-path="url(#k-Tv1mwhTYH-yA3cm00yf)"><g stroke-linecap="round"><g transform="translate(403 377) rotate(0 90 0)"><path d="M-0.13 -0.06 C30.14 0.19, 151.24 0.94, 181.1 0.87 M-1.66 -1.14 C28.59 -1.17, 150.21 -1.08, 180.73 -0.8" stroke="#1e1e1e" stroke-width="2" fill="none"></path></g></g><mask></mask></g><g clip-path="url(#k-Tv1mwhTYH-yA3cm00yf)"><g stroke-linecap="round"><g transform="translate(404 429) rotate(0 90 0)"><path d="M-0.17 0.45 C29.6 0.7, 149.07 0.29, 179.1 0.37 M-1.72 -0.36 C28.38 -0.39, 151.18 -1.46, 181.34 -1.56" stroke="#1e1e1e" stroke-width="2" fill="none"></path></g></g><mask></mask></g><g clip-path="url(#k-Tv1mwhTYH-yA3cm00yf)"><g stroke-linecap="round"><g transform="translate(12 253) rotate(0 76 1)"><path d="M-0.29 -0.74 C24.92 -0.4, 125.93 2, 151.24 2.3 M1.77 1.49 C27.36 1.43, 128.75 0.27, 153.55 0.33" stroke="#1e1e1e" stroke-width="2" fill="none"></path></g></g><mask></mask></g><g clip-path="url(#k-Tv1mwhTYH-yA3cm00yf)"><g transform="translate(30 220) rotate(0 6.558333396911621 12.5)"><text x="0" y="0" font-family="Virgil, Segoe UI Emoji" font-size="20px" fill="#1e1e1e" text-anchor="start" style="white-space: pre;" direction="ltr" dominant-baseline="text-before-edge">A</text></g></g><g clip-path="url(#k-Tv1mwhTYH-yA3cm00yf)"><g stroke-linecap="round"><g transform="translate(201 580) rotate(0 -1 -53)"><path d="M-0.2 0.05 C-0.37 -17.45, -1.95 -87.38, -2.14 -104.9 M-1.76 -0.97 C-2 -18.78, -3.16 -88.79, -3.16 -106.45" stroke="#1e1e1e" stroke-width="2" fill="none"></path></g></g><mask></mask></g><g clip-path="url(#k-Tv1mwhTYH-yA3cm00yf)"><g stroke-linecap="round"><g transform="translate(265 580) rotate(0 -1 -53)"><path d="M-0.44 -0.14 C-0.98 -17.68, -2.15 -87.56, -2.32 -105.02 M1.52 -1.25 C0.72 -19.14, -2.86 -89.06, -3.43 -106.62" stroke="#1e1e1e" stroke-width="2" fill="none"></path></g></g><mask></mask></g><g clip-path="url(#k-Tv1mwhTYH-yA3cm00yf)"><g stroke-linecap="round"><g transform="translate(335 580) rotate(0 -1 -53)"><path d="M0.51 -0.43 C0.16 -17.93, -1.61 -87.39, -1.86 -105.1 M-0.68 -1.7 C-1.2 -19.52, -2.65 -89.41, -2.73 -106.76" stroke="#1e1e1e" stroke-width="2" fill="none"></path></g></g><mask></mask></g><g clip-path="url(#k-Tv1mwhTYH-yA3cm00yf)"><g transform="translate(188 559) rotate(0 99.88333129882812 12.5)"><text x="0" y="0" font-family="Virgil, Segoe UI Emoji" font-size="20px" fill="#1e1e1e" text-anchor="start" style="white-space: pre;" direction="ltr" dominant-baseline="text-before-edge">  S1      S2     S3</text></g></g><g clip-path="url(#k-Tv1mwhTYH-yA3cm00yf)"><g transform="translate(518 59) rotate(0 7.116666793823242 187.5)"><text x="0" y="0" font-family="Virgil, Segoe UI Emoji" font-size="20px" fill="#1e1e1e" text-anchor="start" style="white-space: pre;" direction="ltr" dominant-baseline="text-before-edge">0</text><text x="0" y="25" font-family="Virgil, Segoe UI Emoji" font-size="20px" fill="#1e1e1e" text-anchor="start" style="white-space: pre;" direction="ltr" dominant-baseline="text-before-edge"></text><text x="0" y="50" font-family="Virgil, Segoe UI Emoji" font-size="20px" fill="#1e1e1e" text-anchor="start" style="white-space: pre;" direction="ltr" dominant-baseline="text-before-edge">1</text><text x="0" y="75" font-family="Virgil, Segoe UI Emoji" font-size="20px" fill="#1e1e1e" text-anchor="start" style="white-space: pre;" direction="ltr" dominant-baseline="text-before-edge"></text><text x="0" y="100" font-family="Virgil, Segoe UI Emoji" font-size="20px" fill="#1e1e1e" text-anchor="start" style="white-space: pre;" direction="ltr" dominant-baseline="text-before-edge">2</text><text x="0" y="125" font-family="Virgil, Segoe UI Emoji" font-size="20px" fill="#1e1e1e" text-anchor="start" style="white-space: pre;" direction="ltr" dominant-baseline="text-before-edge"></text><text x="0" y="150" font-family="Virgil, Segoe UI Emoji" font-size="20px" fill="#1e1e1e" text-anchor="start" style="white-space: pre;" direction="ltr" dominant-baseline="text-before-edge">3</text><text x="0" y="175" font-family="Virgil, Segoe UI Emoji" font-size="20px" fill="#1e1e1e" text-anchor="start" style="white-space: pre;" direction="ltr" dominant-baseline="text-before-edge"></text><text x="0" y="200" font-family="Virgil, Segoe UI Emoji" font-size="20px" fill="#1e1e1e" text-anchor="start" style="white-space: pre;" direction="ltr" dominant-baseline="text-before-edge">4</text><text x="0" y="225" font-family="Virgil, Segoe UI Emoji" font-size="20px" fill="#1e1e1e" text-anchor="start" style="white-space: pre;" direction="ltr" dominant-baseline="text-before-edge"></text><text x="0" y="250" font-family="Virgil, Segoe UI Emoji" font-size="20px" fill="#1e1e1e" text-anchor="start" style="white-space: pre;" direction="ltr" dominant-baseline="text-before-edge">5</text><text x="0" y="275" font-family="Virgil, Segoe UI Emoji" font-size="20px" fill="#1e1e1e" text-anchor="start" style="white-space: pre;" direction="ltr" dominant-baseline="text-before-edge"></text><text x="0" y="300" font-family="Virgil, Segoe UI Emoji" font-size="20px" fill="#1e1e1e" text-anchor="start" style="white-space: pre;" direction="ltr" dominant-baseline="text-before-edge">6</text><text x="0" y="325" font-family="Virgil, Segoe UI Emoji" font-size="20px" fill="#1e1e1e" text-anchor="start" style="white-space: pre;" direction="ltr" dominant-baseline="text-before-edge"></text><text x="0" y="350" font-family="Virgil, Segoe UI Emoji" font-size="20px" fill="#1e1e1e" text-anchor="start" style="white-space: pre;" direction="ltr" dominant-baseline="text-before-edge">7</text></g></g></svg>